<svg width="24" height="24" viewBox="0 0 24 24" fill="none" xmlns="http://www.w3.org/2000/svg">
<g clip-path="url(#clip0_1_88)">
<path fill-rule="evenodd" clip-rule="evenodd" d="M20.97 6.20156L12.72 1.6875V1.6875C12.2719 1.43992 11.7281 1.43992 11.28 1.6875L3.03 6.20344C2.55014 6.46599 2.25124 6.96894 2.25 7.51594V16.4822C2.25124 17.0292 2.55014 17.5321 3.03 17.7947L11.28 22.3106C11.7281 22.5582 12.2719 22.5582 12.72 22.3106L20.97 17.7947C21.4499 17.5321 21.7488 17.0292 21.75 16.4822V7.51687C21.7498 6.96887 21.4507 6.4646 20.97 6.20156V6.20156ZM12 3V3L19.5319 7.125L12 11.25L4.46812 7.125L12 3ZM3.75 8.4375L11.25 12.5419V20.5847L3.75 16.4831V8.4375ZM12.75 20.5847V12.5456L20.25 8.4375V16.4794L12.75 20.5847Z" fill="white"/>
</g>
<defs>
<clipPath id="clip0_1_88">
<rect width="24" height="24" fill="white"/>
</clipPath>
</defs>
</svg>
