<svg width="24" height="24" viewBox="0 0 24 24" fill="none" xmlns="http://www.w3.org/2000/svg">
<g clip-path="url(#clip0_1_110)">
<path fill-rule="evenodd" clip-rule="evenodd" d="M14.25 21C14.25 21.4142 13.9142 21.75 13.5 21.75H10.5C10.0858 21.75 9.75 21.4142 9.75 21C9.75 20.5858 10.0858 20.25 10.5 20.25H13.5C13.9142 20.25 14.25 20.5858 14.25 21V21ZM12 10.5C12.6213 10.5 13.125 9.99632 13.125 9.375C13.125 8.75368 12.6213 8.25 12 8.25C11.3787 8.25 10.875 8.75368 10.875 9.375C10.875 9.99632 11.3787 10.5 12 10.5V10.5ZM20.9644 14.6091L19.8056 19.8244C19.6939 20.3278 19.3314 20.7385 18.8457 20.912C18.3601 21.0854 17.8194 20.9972 17.4141 20.6784L14.8603 18.75H9.14156L6.58594 20.6784C6.18058 20.9972 5.6399 21.0854 5.15426 20.912C4.66863 20.7385 4.30612 20.3278 4.19438 19.8244L3.03562 14.6091C2.93603 14.1556 3.05084 13.6815 3.34687 13.3237L6.02437 10.1119C6.11424 8.93151 6.38523 7.772 6.82781 6.67406C8.03719 3.64219 10.2028 1.74 11.0813 1.06313C11.6221 0.644066 12.3779 0.644066 12.9187 1.06313C13.7944 1.74 15.9628 3.64219 17.1722 6.67406C17.6148 7.772 17.8858 8.93151 17.9756 10.1119L20.6531 13.3237C20.9492 13.6815 21.064 14.1556 20.9644 14.6091V14.6091ZM9.32156 17.25H14.6784C16.6584 13.7306 17.0287 10.3612 15.7791 7.23C14.6766 4.46625 12.6084 2.71875 12 2.25C11.3897 2.71875 9.32156 4.46625 8.21906 7.23C6.97125 10.3612 7.34156 13.7306 9.32156 17.25V17.25ZM7.91531 17.7984C6.90594 15.9641 6.29344 14.1613 6.07781 12.39L4.5 14.2837L5.65875 19.5L5.67562 19.4878L7.91531 17.7984ZM19.5 14.2837L17.9222 12.39C17.7084 14.1575 17.0972 15.9603 16.0884 17.7984L18.3244 19.4859L18.3412 19.4981L19.5 14.2837Z" fill="white"/>
</g>
<defs>
<clipPath id="clip0_1_110">
<rect width="24" height="24" fill="white"/>
</clipPath>
</defs>
</svg>
