<svg width="24" height="24" viewBox="0 0 24 24" fill="none" xmlns="http://www.w3.org/2000/svg">
<g clip-path="url(#clip0_1_142)">
<path fill-rule="evenodd" clip-rule="evenodd" d="M22.425 9.12094C22.2393 8.54864 21.7296 8.14267 21.1303 8.08969L15.5625 7.60969L13.38 2.41969V2.41969C13.1476 1.86283 12.6034 1.50019 12 1.50019C11.3966 1.50019 10.8524 1.86283 10.62 2.41969L8.44406 7.60969L2.86969 8.0925C2.26788 8.14307 1.75509 8.54962 1.5686 9.12404C1.38211 9.69846 1.55829 10.3287 2.01562 10.7231L6.24469 14.4187L4.97719 19.9069C4.84016 20.494 5.06802 21.1062 5.55562 21.4608C6.04322 21.8155 6.69578 21.8437 7.21219 21.5325L11.9934 18.6262L16.785 21.5325C17.3014 21.8437 17.954 21.8155 18.4416 21.4608C18.9292 21.1062 19.157 20.494 19.02 19.9069L17.7534 14.4131L21.9816 10.7231C22.4389 10.3273 22.6137 9.69556 22.425 9.12094V9.12094ZM20.9981 9.58969L16.77 13.2797C16.3506 13.6445 16.1674 14.2112 16.2938 14.7525L17.5641 20.25V20.25L12.7762 17.3438C12.3001 17.0538 11.7018 17.0538 11.2256 17.3438L6.44438 20.25V20.25L7.70625 14.7563C7.83263 14.215 7.64936 13.6482 7.23 13.2834L3 9.59531C2.99966 9.59251 2.99966 9.58968 3 9.58687L8.5725 9.105C9.12697 9.05613 9.60878 8.70424 9.82406 8.19094L12 3.0075L14.175 8.19094C14.3903 8.70424 14.8721 9.05613 15.4266 9.105L21 9.58687C21 9.58687 21 9.5925 21 9.59344L20.9981 9.58969Z" fill="white"/>
</g>
<defs>
<clipPath id="clip0_1_142">
<rect width="24" height="24" fill="white"/>
</clipPath>
</defs>
</svg>
