<svg width="24" height="24" viewBox="0 0 24 24" fill="none" xmlns="http://www.w3.org/2000/svg">
<g clip-path="url(#clip0_1_60)">
<path fill-rule="evenodd" clip-rule="evenodd" d="M12 2.25C6.61522 2.25 2.25 6.61522 2.25 12C2.25 17.3848 6.61522 21.75 12 21.75C17.3848 21.75 21.75 17.3848 21.75 12C21.7443 6.61758 17.3824 2.25568 12 2.25V2.25ZM9.52781 15.75H14.4722C13.9687 17.4694 13.125 19.0191 12 20.2397C10.875 19.0191 10.0313 17.4694 9.52781 15.75V15.75ZM9.1875 14.25C8.93875 12.7603 8.93875 11.2397 9.1875 9.75H14.8125C15.0612 11.2397 15.0612 12.7603 14.8125 14.25H9.1875ZM3.75 12C3.74935 11.2392 3.85441 10.4819 4.06219 9.75H7.66781C7.44406 11.2417 7.44406 12.7583 7.66781 14.25H4.06219C3.85441 13.5181 3.74935 12.7608 3.75 12V12ZM14.4722 8.25H9.52781C10.0313 6.53062 10.875 4.98094 12 3.76031C13.125 4.98094 13.9687 6.53062 14.4722 8.25V8.25ZM16.3322 9.75H19.9378C20.3541 11.2211 20.3541 12.7789 19.9378 14.25H16.3322C16.5559 12.7583 16.5559 11.2417 16.3322 9.75V9.75ZM19.3472 8.25H16.0256C15.6429 6.74392 15.0001 5.31623 14.1263 4.03125C16.3838 4.63793 18.28 6.17014 19.3472 8.25V8.25ZM9.87375 4.03125C8.9999 5.31623 8.35712 6.74392 7.97437 8.25H4.65281C5.71999 6.17014 7.61618 4.63793 9.87375 4.03125V4.03125ZM4.65281 15.75H7.97437C8.35712 17.2561 8.9999 18.6838 9.87375 19.9688C7.61618 19.3621 5.71999 17.8299 4.65281 15.75V15.75ZM14.1263 19.9688C15.0001 18.6838 15.6429 17.2561 16.0256 15.75H19.3472C18.28 17.8299 16.3838 19.3621 14.1263 19.9688V19.9688Z" fill="white"/>
</g>
<defs>
<clipPath id="clip0_1_60">
<rect width="24" height="24" fill="white"/>
</clipPath>
</defs>
</svg>
